<?xml version="1.0" encoding="UTF-8"?>
<svg width="900px" height="130px" viewBox="0 0 900 130" version="1.1" xmlns="http://www.w3.org/2000/svg" xmlns:xlink="http://www.w3.org/1999/xlink">
    <!-- Generator: Sketch 50.2 (55047) - http://www.bohemiancoding.com/sketch -->
    <title>Artboard</title>
    <desc>Created with Sketch.</desc>
    <defs>
        <linearGradient x1="-8.1118488e-07%" y1="49.9999994%" x2="99.999998%" y2="49.9999994%" id="linearGradient-1">
            <stop stop-color="#2A3B8F" offset="0%"></stop>
            <stop stop-color="#29ABE2" offset="100%"></stop>
        </linearGradient>
        <linearGradient x1="100.000002%" y1="49.999996%" x2="-2.75984695e-06%" y2="49.999996%" id="linearGradient-2">
            <stop stop-color="#B4D44E" offset="0%"></stop>
            <stop stop-color="#E7F716" offset="100%"></stop>
        </linearGradient>
    </defs>
    <g id="Artboard" stroke="none" stroke-width="1" fill="none" fill-rule="evenodd">
        <g id="Vue.js_Logo_2" fill-rule="nonzero">
            <g id="Group" transform="translate(74.670537, 64.912771) scale(-1, 1) rotate(-180.000000) translate(-74.670537, -64.912771) translate(0.386680, 0.383359)">
                <g transform="translate(0.045021, 0.007503)" fill="#41B883" id="Shape">
                    <polygon points="90.791381 128.308481 73.7818784 98.8470526 56.7723757 128.308481 0.128308481 128.308481 73.7818784 0.735335152 147.435448 128.308481"></polygon>
                </g>
                <g transform="translate(29.308358, 51.030759)" fill="#34495E" id="Shape">
                    <polygon points="61.5280433 77.2852251 44.5185407 47.8237972 27.5090381 77.2852251 0.326398766 77.2852251 44.5185407 0.742838571 88.7106826 77.2852251"></polygon>
                </g>
            </g>
        </g>
        <g id="Group-3" transform="translate(446.000000, 0.000000)" fill-rule="nonzero">
            <g id="Vue.js_Logo_2-Copy" transform="translate(146.000000, 0.000000)">
                <g id="Group" transform="translate(74.670537, 64.912771) scale(-1, 1) rotate(-180.000000) translate(-74.670537, -64.912771) translate(0.386680, 0.383359)">
                    <g transform="translate(0.045021, 0.007503)" fill="#41B883" id="Shape">
                        <polygon points="90.791381 128.308481 73.7818784 98.8470526 56.7723757 128.308481 0.128308481 128.308481 73.7818784 0.735335152 147.435448 128.308481"></polygon>
                    </g>
                    <g transform="translate(29.308358, 51.030759)" fill="#34495E" id="Shape">
                        <polygon points="61.5280433 77.2852251 44.5185407 47.8237972 27.5090381 77.2852251 0.326398766 77.2852251 44.5185407 0.742838571 88.7106826 77.2852251"></polygon>
                    </g>
                </g>
            </g>
            <g id="React-icon" fill="#61DAFB">
                <path d="M146.153318,65 C146.153318,55.3318078 134.045767,46.1693364 115.482838,40.4874142 C119.76659,21.5675057 117.8627,6.51487414 109.473684,1.69565217 C107.540046,0.565217391 105.279176,0.0297482838 102.810069,0.0297482838 L102.810069,6.66361556 C104.17849,6.66361556 105.279176,6.93135011 106.201373,7.43707094 C110.24714,9.75743707 112.002288,18.5926773 110.633867,29.9565217 C110.306636,32.7528604 109.771167,35.6979405 109.116705,38.7025172 C103.286041,37.2745995 96.9199085,36.173913 90.2265446,35.4599542 C86.2105263,29.9565217 82.0457666,24.9588101 77.8512586,20.5858124 C87.5491991,11.5720824 96.6521739,6.63386728 102.839817,6.63386728 L102.839817,0 C102.839817,0 102.839817,0 102.839817,0 C94.6590389,0 83.9496568,5.83066362 73.1212815,15.9450801 C62.2929062,5.89016018 51.583524,0.118993135 43.402746,0.118993135 L43.402746,6.75286041 C49.5606407,6.75286041 58.6933638,11.6613272 68.3913043,20.6155606 C64.2265446,24.9885584 60.0617849,29.9565217 56.1052632,35.4599542 C49.382151,36.173913 43.0160183,37.2745995 37.1853547,38.7322654 C36.5011442,35.7574371 35.9954233,32.8718535 35.6384439,30.1052632 C34.2402746,18.7414188 35.9656751,9.90617849 39.9816934,7.55606407 C40.8741419,7.02059497 42.0343249,6.7826087 43.402746,6.7826087 L43.402746,0.148741419 C43.402746,0.148741419 43.402746,0.148741419 43.402746,0.148741419 C40.9038902,0.148741419 38.6430206,0.684210526 36.6796339,1.81464531 C28.3203661,6.63386728 26.4462243,21.6567506 30.7597254,40.5171625 C12.2562929,46.228833 0.208237986,55.3615561 0.208237986,65 C0.208237986,74.6681922 12.3157895,83.8306636 30.8787185,89.5125858 C26.5949657,108.432494 28.4988558,123.485126 36.8878719,128.304348 C38.8215103,129.434783 41.0823799,129.970252 43.5812357,129.970252 C51.7620137,129.970252 62.4713959,124.139588 73.2997712,114.025172 C84.1281465,124.080092 94.8375286,129.851259 103.018307,129.851259 C105.517162,129.851259 107.778032,129.315789 109.741419,128.185355 C118.100686,123.366133 119.974828,108.343249 115.661327,89.4828375 C134.105263,83.8009153 146.153318,74.6384439 146.153318,65 Z M107.421053,45.1578947 C106.320366,48.9954233 104.951945,52.9519451 103.405034,56.9084668 C102.185355,54.5286041 100.906178,52.1487414 99.5080092,49.7688787 C98.1395881,47.389016 96.6819222,45.0686499 95.2242563,42.8077803 C99.4485126,43.4324943 103.524027,44.2059497 107.421053,45.1578947 Z M93.7963387,76.8398169 C91.4759725,80.8558352 89.0961098,84.6636156 86.6270023,88.2036613 C82.194508,88.590389 77.7025172,88.798627 73.180778,88.798627 C68.6887872,88.798627 64.1967963,88.590389 59.7940503,88.2334096 C57.3249428,84.6933638 54.9153318,80.9153318 52.5949657,76.9290618 C50.3340961,73.0320366 48.2814645,69.0755149 46.4073227,65.0892449 C48.2517162,61.1029748 50.3340961,57.1167048 52.5652174,53.2196796 C54.8855835,49.2036613 57.2654462,45.395881 59.7345538,41.8558352 C64.1670481,41.4691076 68.6590389,41.2608696 73.180778,41.2608696 C77.6727689,41.2608696 82.1647597,41.4691076 86.5675057,41.826087 C89.0366133,45.3661327 91.4462243,49.1441648 93.7665904,53.1304348 C96.02746,57.02746 98.0800915,60.9839817 99.9542334,64.9702517 C98.0800915,68.9565217 96.02746,72.9427918 93.7963387,76.8398169 Z M103.405034,72.97254 C105.011442,76.9588101 106.379863,80.9450801 107.510297,84.812357 C103.613272,85.7643021 99.5080092,86.5675057 95.2540046,87.1922197 C96.7116705,84.9016018 98.1693364,82.5514874 99.5377574,80.1418764 C100.906178,77.7620137 102.185355,75.3524027 103.405034,72.97254 Z M73.2402746,104.713959 C70.4736842,101.858124 67.7070938,98.6750572 64.9702517,95.194508 C67.6475973,95.3135011 70.3844394,95.402746 73.1510297,95.402746 C75.9473684,95.402746 78.7139588,95.3432494 81.4210526,95.194508 C78.7437071,98.6750572 75.9771167,101.858124 73.2402746,104.713959 Z M51.1075515,87.1922197 C46.8832952,86.5675057 42.8077803,85.7940503 38.9107551,84.8421053 C40.0114416,81.0045767 41.3798627,77.0480549 42.9267735,73.0915332 C44.1464531,75.4713959 45.4256293,77.8512586 46.8237986,80.2311213 C48.221968,82.610984 49.6498856,84.9313501 51.1075515,87.1922197 Z M73.0915332,25.2860412 C75.8581236,28.1418764 78.624714,31.3249428 81.3615561,34.805492 C78.6842105,34.6864989 75.9473684,34.597254 73.180778,34.597254 C70.3844394,34.597254 67.617849,34.6567506 64.9107551,34.805492 C67.5881007,31.3249428 70.3546911,28.1418764 73.0915332,25.2860412 Z M51.0778032,42.8077803 C49.6201373,45.0983982 48.1624714,47.4485126 46.7940503,49.8581236 C45.4256293,52.2379863 44.1464531,54.617849 42.9267735,56.9977117 C41.3203661,53.0114416 39.9519451,49.0251716 38.8215103,45.1578947 C42.7185355,44.2356979 46.8237986,43.4324943 51.0778032,42.8077803 Z M24.1556064,80.0526316 C13.624714,75.5606407 6.81235698,69.6704805 6.81235698,65 C6.81235698,60.3295195 13.624714,54.409611 24.1556064,49.9473684 C26.7139588,48.8466819 29.5102975,47.8649886 32.395881,46.9427918 C34.0915332,52.7734554 36.3226545,58.8421053 39.0892449,65.0594966 C36.3524027,71.2471396 34.1510297,77.2860412 32.4851259,83.0869565 C29.5400458,82.1647597 26.7437071,81.1533181 24.1556064,80.0526316 Z M40.1601831,122.562929 C36.1144165,120.242563 34.3592677,111.407323 35.7276888,100.043478 C36.0549199,97.2471396 36.590389,94.3020595 37.2448513,91.2974828 C43.0755149,92.7254005 49.4416476,93.826087 56.1350114,94.5400458 C60.1510297,100.043478 64.3157895,105.04119 68.5102975,109.414188 C58.812357,118.427918 49.7093822,123.366133 43.5217391,123.366133 C42.1830664,123.336384 41.0526316,123.06865 40.1601831,122.562929 Z M110.723112,99.8947368 C112.121281,111.258581 110.395881,120.093822 106.379863,122.443936 C105.487414,122.979405 104.327231,123.217391 102.95881,123.217391 C96.8009153,123.217391 87.6681922,118.308924 77.9702517,109.354691 C82.1350114,104.981693 86.2997712,100.01373 90.2562929,94.5102975 C96.979405,93.7963387 103.345538,92.6956522 109.176201,91.2379863 C109.860412,94.2425629 110.395881,97.1281465 110.723112,99.8947368 Z M122.176201,80.0526316 C119.617849,81.1533181 116.82151,82.1350114 113.935927,83.0572082 C112.240275,77.2265446 110.009153,71.1578947 107.242563,64.9405034 C109.979405,58.7528604 112.180778,52.7139588 113.846682,46.9130435 C116.791762,47.8352403 119.588101,48.8466819 122.20595,49.9473684 C132.736842,54.4393593 139.549199,60.3295195 139.549199,65 C139.519451,69.6704805 132.707094,75.590389 122.176201,80.0526316 Z" id="Shape"></path>
                <circle id="Oval" cx="73.1510297" cy="65" r="13.5949657"></circle>
            </g>
            <g id="webcomponents-official" transform="translate(295.000000, 0.000000)">
                <polygon id="Shape" fill="#166DA5" points="157.59434 64.7856452 140.543955 93.4969259 116.634219 64.3936823 140.543955 36.0743644"></polygon>
                <polygon id="Shape" fill="#8FDB69" points="138.682131 98.3964619 112.71459 67.3334039 97.1340661 93.3989352 121.337774 128.773585"></polygon>
                <polygon id="Shape" fill="#166DA5" points="138.388159 30.978847 112.71459 62.1398958 97.1340661 36.0743644 121.337774 1.09167761"></polygon>
                <path d="M60.0935742,30.978847 L138.388159,30.978847 L121.141792,0.895696167 L77.3399408,0.895696167 L60.0935742,30.978847 Z M112.71459,62.2378865 L156.026488,62.2378865 L140.445964,35.9763737 L97.0360754,35.9763737 L112.71459,62.2378865 Z" id="Shape" fill="url(#linearGradient-1)" opacity="0.95"></path>
                <path d="M138.682131,98.4944526 L59.9955835,98.4944526 L77.2419501,128.381622 L121.337774,128.381622 L138.682131,98.4944526 Z M112.71459,67.2354132 L156.026488,67.2354132 L140.445964,93.4969259 L97.0360754,93.4969259 L112.71459,67.2354132 Z" id="Shape" fill="url(#linearGradient-2)" opacity="0.95"></path>
                <polygon id="Shape" fill="#010101" points="77.2419501 128.381622 40.3974396 64.6876545 77.7319037 0.993686887 37.3597273 0.993686887 0.613207547 64.6876545 37.3597273 128.381622"></polygon>
            </g>
        </g>
        <g id="Group-2" transform="translate(243.000000, 21.000000)" fill="#D8D8D8">
            <rect id="Rectangle" x="0" y="22" width="70" height="46"></rect>
            <polygon id="Triangle" transform="translate(83.000000, 44.500000) rotate(90.000000) translate(-83.000000, -44.500000) " points="83 18 127 71 39 71"></polygon>
        </g>
    </g>
</svg>