<?xml version="1.0" encoding="UTF-8"?>
<svg width="622px" height="130px" viewBox="0 0 622 130" version="1.1" xmlns="http://www.w3.org/2000/svg" xmlns:xlink="http://www.w3.org/1999/xlink">
    <!-- Generator: Sketch 50.2 (55047) - http://www.bohemiancoding.com/sketch -->
    <title>tmp_header</title>
    <desc>Created with Sketch.</desc>
    <defs>
        <linearGradient x1="-8.1118488e-07%" y1="49.9999994%" x2="99.999998%" y2="49.9999994%" id="linearGradient-1">
            <stop stop-color="#2A3B8F" offset="0%"></stop>
            <stop stop-color="#29ABE2" offset="100%"></stop>
        </linearGradient>
        <linearGradient x1="100.000002%" y1="49.999996%" x2="-2.75984695e-06%" y2="49.999996%" id="linearGradient-2">
            <stop stop-color="#B4D44E" offset="0%"></stop>
            <stop stop-color="#E7F716" offset="100%"></stop>
        </linearGradient>
    </defs>
    <g id="tmp_header" stroke="none" stroke-width="1" fill="none" fill-rule="evenodd">
        <g id="Vue.js_Logo_2" transform="translate(6.000000, 6.000000)" fill-rule="nonzero">
            <g id="Group" transform="translate(68.000000, 59.000000) scale(-1, 1) rotate(-180.000000) translate(-68.000000, -59.000000) ">
                <g transform="translate(0.041118, 0.006811)" fill="#41B883" id="Shape">
                    <polygon points="82.9205775 116.464621 67.3856471 89.7227093 51.8507168 116.464621 0.117185279 116.464621 67.3856471 0.667458061 134.654109 116.464621"></polygon>
                </g>
                <g transform="translate(26.767585, 46.320227)" fill="#34495E" id="Shape">
                    <polygon points="56.1941104 70.1512043 40.65918 43.4092928 25.1242497 70.1512043 0.298102902 70.1512043 40.65918 0.674268857 81.0202571 70.1512043"></polygon>
                </g>
            </g>
        </g>
        <g id="Vue.js_Logo_2-Copy" transform="translate(479.000000, 3.000000)" fill-rule="nonzero">
            <g id="Group" transform="translate(71.367493, 62.469860) scale(-1, 1) rotate(-180.000000) translate(-71.367493, -62.469860) translate(0.367493, 0.969860)">
                <g transform="translate(0.042787, 0.007131)" fill="#41B883" id="Shape">
                    <polygon points="86.2864651 121.942029 70.1209455 93.9424278 53.9554258 121.942029 0.121942029 121.942029 70.1209455 0.698849056 140.119949 121.942029"></polygon>
                </g>
                <g transform="translate(27.854127, 48.498698)" fill="#34495E" id="Shape">
                    <polygon points="58.4751251 73.450462 42.3096055 45.4508607 26.1440858 73.450462 0.310203408 73.450462 42.3096055 0.705980169 84.3090075 73.450462"></polygon>
                </g>
            </g>
        </g>
        <g id="webcomponents-official" transform="translate(372.000000, 0.000000)" fill-rule="nonzero">
            <polygon id="Shape" fill="#166DA5" points="157.387597 64.7856452 140.35958 93.4969259 116.481211 64.3936823 140.35958 36.0743644"></polygon>
            <polygon id="Shape" fill="#8FDB69" points="138.500199 98.3964619 112.566724 67.3334039 97.0066392 93.3989352 121.178595 128.773585"></polygon>
            <polygon id="Shape" fill="#166DA5" points="138.206612 30.978847 112.566724 62.1398958 97.0066392 36.0743644 121.178595 1.09167761"></polygon>
            <path d="M60.0147394,30.978847 L138.206612,30.978847 L120.98287,0.895696167 L77.2384811,0.895696167 L60.0147394,30.978847 Z M112.566724,62.2378865 L155.821803,62.2378865 L140.261718,35.9763737 L96.908777,35.9763737 L112.566724,62.2378865 Z" id="Shape" fill="url(#linearGradient-1)" opacity="0.95"></path>
            <path d="M138.500199,98.4944526 L59.9168773,98.4944526 L77.1406189,128.381622 L121.178595,128.381622 L138.500199,98.4944526 Z M112.566724,67.2354132 L155.821803,67.2354132 L140.261718,93.4969259 L96.908777,93.4969259 L112.566724,67.2354132 Z" id="Shape" fill="url(#linearGradient-2)" opacity="0.95"></path>
            <polygon id="Shape" fill="#010101" points="77.1406189 128.381622 40.3444436 64.6876545 77.6299298 0.993686887 37.3107163 0.993686887 0.612403101 64.6876545 37.3107163 128.381622"></polygon>
        </g>
        <g id="React-icon" transform="translate(276.000000, 0.000000)" fill="#61DAFB" fill-rule="nonzero">
            <path d="M145.792276,65 C145.792276,55.3318078 133.714634,46.1693364 115.197561,40.4874142 C119.470732,21.5675057 117.571545,6.51487414 109.203252,1.69565217 C107.27439,0.565217391 105.019106,0.0297482838 102.556098,0.0297482838 L102.556098,6.66361556 C103.921138,6.66361556 105.019106,6.93135011 105.939024,7.43707094 C109.974797,9.75743707 111.72561,18.5926773 110.360569,29.9565217 C110.034146,32.7528604 109.5,35.6979405 108.847154,38.7025172 C103.030894,37.2745995 96.6804878,36.173913 90.0036585,35.4599542 C85.997561,29.9565217 81.8430894,24.9588101 77.6589431,20.5858124 C87.3329268,11.5720824 96.4134146,6.63386728 102.585772,6.63386728 L102.585772,0 C102.585772,0 102.585772,0 102.585772,0 C94.4252033,0 83.7422764,5.83066362 72.9406504,15.9450801 C62.1390244,5.89016018 51.4560976,0.118993135 43.2955285,0.118993135 L43.2955285,6.75286041 C49.4382114,6.75286041 58.548374,11.6613272 68.2223577,20.6155606 C64.0678862,24.9885584 59.9134146,29.9565217 55.9666667,35.4599542 C49.2601626,36.173913 42.9097561,37.2745995 37.0934959,38.7322654 C36.4109756,35.7574371 35.9065041,32.8718535 35.5504065,30.1052632 C34.1556911,18.7414188 35.8768293,9.90617849 39.8829268,7.55606407 C40.7731707,7.02059497 41.9304878,6.7826087 43.2955285,6.7826087 L43.2955285,0.148741419 C43.2955285,0.148741419 43.2955285,0.148741419 43.2955285,0.148741419 C40.8028455,0.148741419 38.547561,0.684210526 36.5890244,1.81464531 C28.2504065,6.63386728 26.3808943,21.6567506 30.6837398,40.5171625 C12.2260163,46.228833 0.207723577,55.3615561 0.207723577,65 C0.207723577,74.6681922 12.2853659,83.8306636 30.802439,89.5125858 C26.5292683,108.432494 28.4284553,123.485126 36.796748,128.304348 C38.7256098,129.434783 40.9808943,129.970252 43.4735772,129.970252 C51.6341463,129.970252 62.3170732,124.139588 73.1186992,114.025172 C83.9203252,124.080092 94.603252,129.851259 102.763821,129.851259 C105.256504,129.851259 107.511789,129.315789 109.470325,128.185355 C117.808943,123.366133 119.678455,108.343249 115.37561,89.4828375 C133.773984,83.8009153 145.792276,74.6384439 145.792276,65 Z M107.155691,45.1578947 C106.057724,48.9954233 104.692683,52.9519451 103.149593,56.9084668 C101.932927,54.5286041 100.656911,52.1487414 99.2621951,49.7688787 C97.8971545,47.389016 96.4430894,45.0686499 94.9890244,42.8077803 C99.2028455,43.4324943 103.268293,44.2059497 107.155691,45.1578947 Z M93.5646341,76.8398169 C91.25,80.8558352 88.8760163,84.6636156 86.4130081,88.2036613 C81.9914634,88.590389 77.5105691,88.798627 73,88.798627 C68.5191057,88.798627 64.0382114,88.590389 59.6463415,88.2334096 C57.1833333,84.6933638 54.7796748,80.9153318 52.4650407,76.9290618 C50.2097561,73.0320366 48.1621951,69.0755149 46.2926829,65.0892449 C48.1325203,61.1029748 50.2097561,57.1167048 52.4353659,53.2196796 C54.75,49.2036613 57.1239837,45.395881 59.5869919,41.8558352 C64.0085366,41.4691076 68.4894309,41.2608696 73,41.2608696 C77.4808943,41.2608696 81.9617886,41.4691076 86.3536585,41.826087 C88.8166667,45.3661327 91.2203252,49.1441648 93.5349593,53.1304348 C95.7902439,57.02746 97.8378049,60.9839817 99.7073171,64.9702517 C97.8378049,68.9565217 95.7902439,72.9427918 93.5646341,76.8398169 Z M103.149593,72.97254 C104.752033,76.9588101 106.117073,80.9450801 107.244715,84.812357 C103.357317,85.7643021 99.2621951,86.5675057 95.0186992,87.1922197 C96.4727642,84.9016018 97.9268293,82.5514874 99.2918699,80.1418764 C100.656911,77.7620137 101.932927,75.3524027 103.149593,72.97254 Z M73.0593496,104.713959 C70.2995935,101.858124 67.5398374,98.6750572 64.8097561,95.194508 C67.4804878,95.3135011 70.2105691,95.402746 72.9703252,95.402746 C75.7597561,95.402746 78.5195122,95.3432494 81.2199187,95.194508 C78.549187,98.6750572 75.7894309,101.858124 73.0593496,104.713959 Z M50.9813008,87.1922197 C46.7674797,86.5675057 42.7020325,85.7940503 38.8146341,84.8421053 C39.9126016,81.0045767 41.2776423,77.0480549 42.8207317,73.0915332 C44.0373984,75.4713959 45.3134146,77.8512586 46.7081301,80.2311213 C48.1028455,82.610984 49.5272358,84.9313501 50.9813008,87.1922197 Z M72.9109756,25.2860412 C75.6707317,28.1418764 78.4304878,31.3249428 81.1605691,34.805492 C78.4898374,34.6864989 75.7597561,34.597254 73,34.597254 C70.2105691,34.597254 67.450813,34.6567506 64.7504065,34.805492 C67.4211382,31.3249428 70.1808943,28.1418764 72.9109756,25.2860412 Z M50.951626,42.8077803 C49.497561,45.0983982 48.0434959,47.4485126 46.6784553,49.8581236 C45.3134146,52.2379863 44.0373984,54.617849 42.8207317,56.9977117 C41.2182927,53.0114416 39.853252,49.0251716 38.7256098,45.1578947 C42.6130081,44.2356979 46.7081301,43.4324943 50.951626,42.8077803 Z M24.095935,80.0526316 C13.5910569,75.5606407 6.79552846,69.6704805 6.79552846,65 C6.79552846,60.3295195 13.5910569,54.409611 24.095935,49.9473684 C26.6479675,48.8466819 29.4373984,47.8649886 32.3158537,46.9427918 C34.0073171,52.7734554 36.2329268,58.8421053 38.9926829,65.0594966 C36.2626016,71.2471396 34.0666667,77.2860412 32.404878,83.0869565 C29.4670732,82.1647597 26.6776423,81.1533181 24.095935,80.0526316 Z M40.0609756,122.562929 C36.0252033,120.242563 34.2743902,111.407323 35.6394309,100.043478 C35.9658537,97.2471396 36.5,94.3020595 37.1528455,91.2974828 C42.9691057,92.7254005 49.3195122,93.826087 55.9963415,94.5400458 C60.002439,100.043478 64.1569106,105.04119 68.3410569,109.414188 C58.6670732,118.427918 49.5865854,123.366133 43.4142276,123.366133 C42.0788618,123.336384 40.9512195,123.06865 40.0609756,122.562929 Z M110.449593,99.8947368 C111.844309,111.258581 110.123171,120.093822 106.117073,122.443936 C105.226829,122.979405 104.069512,123.217391 102.704472,123.217391 C96.5617886,123.217391 87.451626,118.308924 77.7776423,109.354691 C81.9321138,104.981693 86.0865854,100.01373 90.0333333,94.5102975 C96.7398374,93.7963387 103.090244,92.6956522 108.906504,91.2379863 C109.589024,94.2425629 110.123171,97.1281465 110.449593,99.8947368 Z M121.87439,80.0526316 C119.322358,81.1533181 116.532927,82.1350114 113.654472,83.0572082 C111.963008,77.2265446 109.737398,71.1578947 106.977642,64.9405034 C109.707724,58.7528604 111.903659,52.7139588 113.565447,46.9130435 C116.503252,47.8352403 119.292683,48.8466819 121.904065,49.9473684 C132.408943,54.4393593 139.204472,60.3295195 139.204472,65 C139.174797,69.6704805 132.379268,75.590389 121.87439,80.0526316 Z" id="Shape"></path>
            <ellipse id="Oval" cx="72.9703252" cy="65" rx="13.5613821" ry="13.5949657"></ellipse>
        </g>
        <g id="Group-2" transform="translate(168.000000, 28.000000)" fill="#D8D8D8">
            <rect id="Rectangle" x="0" y="18" width="49" height="38"></rect>
            <polygon id="Triangle" transform="translate(60.000000, 37.000000) rotate(90.000000) translate(-60.000000, -37.000000) " points="60 15 97 59 23 59"></polygon>
        </g>
    </g>
</svg>